<svg width="37" height="39" xmlns="http://www.w3.org/2000/svg" enable-background="new 0 0 24 24" fill="#0eafa7">
 <g>
  <title>Vytix</title>
  <g transform="rotate(-0.225569 21.592 15.0743)" stroke="null" id="svg_1">
   <rect stroke="null" x="4.065" y="6.47415" fill="none" height="26.05171" width="28.87001" id="svg_2"/>
  </g>
  <g stroke="null" id="svg_3">
   <path stroke="null" d="m31.14006,10.88463c0,1.31506 -1.22986,2.38883 -2.7361,2.38883l-1.4095,0l0,-2.58186c2.37681,-0.53085 4.1456,-2.40089 4.1456,-4.63288l0,-0.02413l-2.76373,0.02413c0,1.31506 -1.22986,2.38883 -2.7361,2.38883l-0.71857,0l-6.2184,-7.23887l-6.2184,7.23887l-0.71857,0c-1.50624,0 -2.7361,-1.07377 -2.7361,-2.38883l-2.76373,0c0,2.24405 1.76879,4.10203 4.1456,4.63288l0,2.58186l-1.4095,0c-1.50624,0 -2.7361,-1.07377 -2.7361,-2.38883l-2.76373,0c0,2.24405 1.76879,4.10203 4.1456,4.63288l0,11.02721l9.67307,0l0,-4.82591c0,-0.66356 0.62184,-1.20648 1.38187,-1.20648s1.38187,0.54292 1.38187,1.20648l0,4.82591l9.67307,0l0,-11.02721c2.37681,-0.53085 4.1456,-2.40089 4.1456,-4.63288l0,-0.02413l-2.76373,0.02413zm-12.43681,-5.65838l2.76373,3.2213l-5.52747,0l2.76373,-3.2213zm-5.52747,5.63425l11.05494,0l0,2.41296l-11.05494,0l0,-2.41296zm13.81867,13.27126l-4.1456,0l0,-2.41296c0,-1.99069 -1.86552,-3.61944 -4.1456,-3.61944c-2.28008,0 -4.1456,1.62875 -4.1456,3.61944l0,2.41296l-4.1456,0l0,-8.44535l16.58241,0l0,8.44535z" id="svg_4"/>
  </g>
  <text style="cursor: move;" transform="matrix(1.33215 0 0 0.839703 -0.116914 11.6758)" stroke="#000" xml:space="preserve" text-anchor="start" font-family="'Arimo'" font-size="12" id="svg_7" y="27.64486" x="2.02542" stroke-width="0" fill="#0eafa7">vytix</text>
 </g>

</svg>